<svg xmlns="http://www.w3.org/2000/svg" width="100" height="85.003" viewBox="0 0 100 85.003">
  <path id="path6596" d="M55.811,105.275q-2.861-.309-5.811-.354a61.38,61.38,0,0,0-25.909,6.128A65.992,65.992,0,0,0,6.451,123.9c-2.6,2.75-5.915,6.732-6.451,10.98.063,3.68,4.013,8.222,6.451,10.98a64.99,64.99,0,0,0,17.639,12.848q.344.167.69.33L18.524,169.96l8.5,5.024,45.951-80-8.182-5Zm19.4,5.457L68.97,121.553a21.751,21.751,0,0,1,4.578,13.324C73.547,147.315,63,157.4,49.994,157.4c-.562,0-1.108-.061-1.66-.1L44.2,164.454c1.906.2,3.833.353,5.8.378A61.672,61.672,0,0,0,75.9,158.7a66.018,66.018,0,0,0,17.645-12.848c2.6-2.75,5.915-6.732,6.451-10.98-.063-3.68-4.013-8.222-6.451-10.98A65.02,65.02,0,0,0,75.9,111.049c-.228-.11-.461-.21-.69-.317Zm-25.22,1.623c.57,0,1.136.023,1.7.061l-4.84,8.38a14.553,14.553,0,0,0-11.89,14.075,13.808,13.808,0,0,0,.909,4.944s0,0,0,.006l-4.852,8.4a21.774,21.774,0,0,1-4.578-13.348c0-12.438,10.544-22.522,23.553-22.522Zm14.081,17.67-10.907,18.9a14.538,14.538,0,0,0,11.816-14.05,13.755,13.755,0,0,0-.909-4.846Z" transform="translate(0 -89.98)" fill="#c72c41"/>
</svg>
